<svg class="SvgIcon_SvgIcon__root__svg__DKYBi" viewBox="0 0 32 32" width="32" height="32"><path d="M11.667 28.667a1 1 0 0 1-1-1v-7h-2v7a1 1 0 0 1-1 1H2.333a1 1 0 0 1-1-1V5a1 1 0 0 1 1-1H17a1 1 0 0 1 1 1v4.333h11a1 1 0 0 1 .993.884l.007.116v12a1 1 0 1 1-2 0v-11H18v15.334h11a1 1 0 1 1 0 2H11.667zM16 6H3.333v20.667h3.334v-7a1 1 0 0 1 1-1h4a1 1 0 0 1 1 1v7H16V6zm5 12.333c.736 0 1.333.597 1.333 1.334V21a1.333 1.333 0 1 1-2.666 0v-1.333c0-.737.597-1.334 1.333-1.334zM21 13c.736 0 1.333.597 1.333 1.333v1.334a1.333 1.333 0 1 1-2.666 0v-1.334c0-.736.597-1.333 1.333-1.333zM8 13a1 1 0 0 1 1 1v2a1 1 0 0 1-1 1h-.667a1 1 0 0 1-1-1v-2a1 1 0 0 1 1-1H8zm0-5.333a1 1 0 0 1 1 1v2a1 1 0 0 1-1 1h-.667a1 1 0 0 1-1-1v-2a1 1 0 0 1 1-1H8z"></path></svg>