<svg class="SvgIcon_SvgIcon__root__svg__DKYBi" viewBox="0 0 32 32" width="32" height="32"><path d="M10.667 21.667a3.67 3.67 0 0 1 3.528 2.666H28a1 1 0 0 1 0 2l-13.805.001a3.67 3.67 0 0 1-7.057 0H4a1 1 0 1 1 0-2h3.138a3.67 3.67 0 0 1 3.529-2.667zm0 2a1.668 1.668 0 0 0 0 3.333 1.668 1.668 0 0 0 0-3.333zm10.666-11.334A3.67 3.67 0 0 1 24.862 15H28a1 1 0 0 1 0 2h-3.138a3.67 3.67 0 0 1-7.057 0H4a1 1 0 0 1 0-2h13.805a3.67 3.67 0 0 1 3.528-2.667zm0 2a1.668 1.668 0 0 0 0 3.334 1.668 1.668 0 0 0 0-3.334zM10.667 3a3.67 3.67 0 0 1 3.528 2.666H28a1 1 0 0 1 0 2H14.195a3.67 3.67 0 0 1-7.057 0H4a1 1 0 1 1 0-2h3.138A3.67 3.67 0 0 1 10.667 3zm0 2a1.668 1.668 0 0 0 0 3.333 1.668 1.668 0 0 0 0-3.333z"></path></svg>