<svg class="SvgIcon_SvgIcon__root__svg__DKYBi" viewBox="0 0 32 32" width="32" height="32"><path d="M18.812 14.36c-.722.917-1.172 1.905-1.188 2.959-.023 1.658.907 2.901 2.613 3.605l.132.044c3.985 1.027 6.615 3.38 6.615 5.748L27 28.118c0 .03-.222.215-.4.215H5.33c-.157 0-.314-.14-.314-.203L5 26.705c0-2.283 2.384-4.493 6.185-5.564.349-.079.896-.273 1.458-.616.885-.54 1.504-1.297 1.654-2.301a1 1 0 1 0-1.978-.296c-.05.333-.293.63-.719.89-.345.21-.703.338-.909.385C6.075 20.503 3 23.353 3 26.716l.016 1.426c0 1.214 1.103 2.191 2.313 2.191h21.272c1.213-.002 2.399-.995 2.399-2.226l-.016-1.403c0-3.432-3.313-6.414-8.044-7.654-.944-.404-1.327-.932-1.316-1.702.008-.541.284-1.147.76-1.75.31-.394.622-.691.81-.84l.1-.092c1.409-1.474 2.319-3.428 2.319-5.333 0-4.169-3.488-7.666-7.648-7.666-4.158 0-7.647 3.498-7.647 7.666 0 1.795.506 3.33 1.55 4.628a1 1 0 1 0 1.558-1.255c-.748-.93-1.108-2.02-1.108-3.373 0-3.065 2.595-5.666 5.647-5.666 3.054 0 5.648 2.6 5.648 5.666 0 1.329-.67 2.786-1.722 3.906a7.46 7.46 0 0 0-1.079 1.122z"></path></svg>