<svg width="160" height="31" class="SvgIcon_SvgIcon__root__svg__DKYBi FirstWantedPlusSubscribe_FirstWantedPlusSubscribe__title__Logo__Svg__ivrbt" viewBox="0 0 160 31"><path d="M0.140625 10.0156L6.11719 29H11.4258L15.5391 16.5547L19.6172 29H24.9609L30.9375 10.0156H25.6289L22.1133 21.8984L18.2461 10.0156H12.7969L8.92969 21.8984L5.41406 10.0156H0.140625ZM46.5469 29H51.6094V10.0156H46.5469V11.9844C45.1758 10.2441 43.1895 9.3125 40.6406 9.3125C35.2969 9.3125 31.4121 13.6016 31.4297 19.5078C31.4121 25.4141 35.2969 29.7031 40.6406 29.7031C43.1895 29.7031 45.1758 28.7891 46.5469 27.0664V29ZM36.4922 19.5078C36.4746 16.2559 38.6016 13.8828 41.5547 13.8828C44.543 13.8828 46.5117 16.0977 46.5469 19.5078C46.5117 22.918 44.543 25.1328 41.5547 25.1328C38.6016 25.1328 36.4746 22.7598 36.4922 19.5078ZM60.0469 29V17.75C60.082 15.7285 61.6289 14.0234 63.7383 14.0234C66.041 14.0234 67.2188 15.5527 67.2188 18.1719V29H72.2812V16.7656C72.2812 12.125 69.6445 9.3125 65.5312 9.3125C63.2285 9.3125 61.3125 10.4023 60.0469 12.1953V10.0156H54.9844V29H60.0469ZM86.6602 10.0156H82.8633V3.72266L77.8008 5.76172V10.0156H74.3906V14.5156H77.8008V22.7422C77.8008 28.1035 81.3867 30.2305 86.6602 29.1758V24.5352C83.7949 25.0801 82.8633 24.1836 82.8633 22.7422V14.5156H86.6602V10.0156ZM89.1211 19.5078C89.1211 25.4141 93.2871 29.7031 99 29.7031C103.078 29.7031 106.418 27.5762 108.035 23.832L103.148 22.6367C102.34 24.2012 100.881 25.1328 99 25.1328C96.4863 25.1328 94.7285 23.4805 94.2891 20.8438H108.809C108.844 20.4043 108.879 19.9648 108.879 19.5078C108.861 13.6016 104.713 9.3125 99 9.3125C93.2871 9.3125 89.1211 13.6016 89.1211 19.5078ZM94.5176 17.3281C94.834 15.377 96.4688 13.8828 99 13.8828C101.496 13.8828 103.113 15.377 103.465 17.3281H94.5176ZM130.746 29V0.804688L125.684 2.84375V11.9844C124.312 10.2441 122.326 9.3125 119.777 9.3125C114.434 9.3125 110.549 13.6016 110.566 19.5078C110.549 25.4141 114.434 29.7031 119.777 29.7031C122.326 29.7031 124.312 28.7891 125.684 27.0664V29H130.746ZM115.629 19.5078C115.611 16.2559 117.738 13.8828 120.691 13.8828C123.68 13.8828 125.648 16.0977 125.684 19.5078C125.648 22.918 123.68 25.1328 120.691 25.1328C117.738 25.1328 115.611 22.7598 115.629 19.5078ZM148.148 16.4141H141.363V20.3164H148.148V27.3828H152.191V20.3164H159.012V16.4141H152.191V9.41797H148.148V16.4141Z" fill="#000000"></path></svg>